<?xml version="1.0" encoding="UTF-8"?>
<!DOCTYPE svg PUBLIC "-//W3C//DTD SVG 1.1//EN" "http://www.w3.org/Graphics/SVG/1.1/DTD/svg11.dtd">
<svg version="1.1" xmlns="http://www.w3.org/2000/svg" xmlns:xlink="http://www.w3.org/1999/xlink" x="0px" y="0px" width="1200" height="400" viewBox="0, 0, 1200, 400">
  <g id="Background">
    <rect x="0" y="0" width="1200" height="400" fill="#000000" fill-opacity="0"/>
  </g>
  <g id="Layer 1">
    <g>
      <path d="M201.008,280.5 C134.734,280.5 81.008,226.774 81.008,160.5 C81.008,94.226 134.734,40.5 201.008,40.5 C267.282,40.5 321.008,94.226 321.008,160.5 C321.008,226.774 267.282,280.5 201.008,280.5 z" fill="#8FC7ED"/>
      <path d="M201.008,280.5 C134.734,280.5 81.008,226.774 81.008,160.5 C81.008,94.226 134.734,40.5 201.008,40.5 C267.282,40.5 321.008,94.226 321.008,160.5 C321.008,226.774 267.282,280.5 201.008,280.5 z" fill-opacity="0" stroke="#294371" stroke-width="8"/>
    </g>
    <text transform="matrix(1, 0, 0, 1, 200.508, 335)">
      <tspan x="-168.67" y="11" font-family="Verdana-Bold" font-size="36" fill="#294270">simple_areas(3)</tspan>
    </text>
    <g>
      <path d="M457.153,120.5 L697.153,120.5 L697.153,280.5 L457.153,280.5 z" fill="#8FC7ED"/>
      <path d="M457.153,120.5 L697.153,120.5 L697.153,280.5 L457.153,280.5 z" fill-opacity="0" stroke="#294270" stroke-width="8"/>
    </g>
    <text transform="matrix(1, 0, 0, 1, 576.653, 62.5)">
      <tspan x="-186.653" y="13.5" font-family="Verdana-Bold" font-size="36" fill="#294270">simple_areas(2,3)</tspan>
    </text>
    <g>
      <path d="M801.008,280.5 L1121.008,40.5 L1121.008,280.5 z" fill="#8FC7ED"/>
      <path d="M801.008,280.5 L1121.008,40.5 L1121.008,280.5 z" fill-opacity="0" stroke="#294270" stroke-width="8"/>
    </g>
    <text transform="matrix(1, 0, 0, 1, 960.508, 335)">
      <tspan x="-207.653" y="13.5" font-family="Verdana-Bold" font-size="36" fill="#294270">simple_areas(3,5,4)</tspan>
    </text>
  </g>
  <defs/>
</svg>
