<?xml version="1.0" encoding="UTF-8"?>
<!DOCTYPE svg PUBLIC "-//W3C//DTD SVG 1.1//EN" "http://www.w3.org/Graphics/SVG/1.1/DTD/svg11.dtd">
<svg version="1.1" xmlns="http://www.w3.org/2000/svg" xmlns:xlink="http://www.w3.org/1999/xlink" x="0px" y="0px" width="128" height="128" viewBox="0, 0, 128, 128">
  <g id="Background">
    <rect x="0" y="0" width="128" height="128" fill="#000000" fill-opacity="0"/>
  </g>
  <g id="Background">
    <path d="M18.093,6 L109.907,6 C116.561,6 122,11.439 122,18.095 L122,109.907 C122,116.561 116.561,122 109.907,122 L18.093,122 C11.439,122 6,116.561 6,109.907 L6,18.095 C6,11.439 11.439,6 18.093,6" fill="#727272"/>
    <path d="M64,11.837 C78.405,11.837 91.452,17.679 100.888,27.114 C110.323,36.548 116.163,49.597 116.163,64 C116.163,78.387 110.323,91.439 100.888,100.878 L100.883,100.883 L100.878,100.888 C91.439,110.323 78.386,116.165 64,116.165 C49.597,116.165 36.548,110.323 27.114,100.888 C17.677,91.452 11.837,78.405 11.837,64 C11.837,49.606 17.682,36.558 27.114,27.123 L27.122,27.114 C36.558,17.682 49.605,11.837 64,11.837 z M97.654,30.347 C89.045,21.739 77.139,16.405 64,16.405 C50.861,16.405 38.955,21.739 30.342,30.342 C21.737,38.955 16.403,50.861 16.403,64 C16.403,77.14 21.737,89.046 30.347,97.655 C38.96,106.268 50.861,111.597 64,111.597 C77.143,111.597 89.054,106.268 97.654,97.664 L97.663,97.655 C106.267,89.054 111.597,77.145 111.597,64 C111.597,50.861 106.267,38.96 97.654,30.347" fill="#EBEDED"/>
    <path d="M32.78,30.497 L95.225,30.497 L97.508,30.497 L97.508,32.781 L97.508,95.225 L97.508,97.508 L95.225,97.508 L32.78,97.508 L30.497,97.508 L30.497,95.225 L30.497,32.781 L30.497,30.497 z M92.94,35.064 L35.064,35.064 L35.064,92.942 L92.94,92.942 z" fill="#EBECEC"/>
    <path d="M65.991,42.395 L88.52,82.757 L90.411,86.146 L86.528,86.146 L41.472,86.146 L37.586,86.146 L39.481,82.757 L62.009,42.395 L64,38.823 z M82.647,81.579 L64,48.172 L45.353,81.579 z" fill="#EBEDED"/>
  </g>
  <defs/>
</svg>
